<svg width="18" height="18" viewBox="0 0 18 18" fill="none" xmlns="http://www.w3.org/2000/svg">
<path d="M15.8906 0H2.10938C0.946266 0 0 0.946266 0 2.10938V15.8906C0 17.0537 0.946266 18 2.10938 18H15.8906C17.0537 18 18 17.0537 18 15.8906V2.10938C18 0.946266 17.0537 0 15.8906 0ZM16.5938 15.8906C16.5938 16.2783 16.2783 16.5938 15.8906 16.5938H11.8828V10.8633H14.0551L14.4141 8.68359H11.8828V7.17188C11.8828 6.5751 12.3407 6.11719 12.9375 6.11719H14.3789V3.9375H12.9375C11.1472 3.9375 9.7039 5.3877 9.7039 7.17799V8.68359H7.59375V10.8633H9.7039V16.5938H2.10938C1.72167 16.5938 1.40625 16.2783 1.40625 15.8906V2.10938C1.40625 1.72167 1.72167 1.40625 2.10938 1.40625H15.8906C16.2783 1.40625 16.5938 1.72167 16.5938 2.10938V15.8906Z" fill="white"/>
</svg>
