<svg width="118" height="28" viewBox="0 0 118 28" fill="none" xmlns="http://www.w3.org/2000/svg">
<g clip-path="url(#clip0)">
<path d="M112.201 2.36291V0.236328H106.637V2.36291C106.637 2.48105 106.753 2.71734 106.869 2.71734L109.303 3.89877C109.419 4.01692 109.535 4.01692 109.651 3.89877L112.085 2.71734C112.085 2.71734 112.201 2.5992 112.201 2.36291Z" fill="white"/>
<path d="M105.594 25.9916C104.783 24.3376 105.13 22.3292 106.405 21.0296C106.637 20.7933 106.869 20.557 107.217 20.4389C107.333 20.3207 107.449 20.2026 107.449 20.0844V6.37979C107.449 6.26165 107.333 6.1435 107.217 6.02536C105.246 4.84392 104.551 2.24477 105.71 0.236328H103.971C102.58 0.236328 101.537 1.29962 101.537 2.71734V25.1646C101.537 26.5823 102.58 27.6456 103.971 27.6456H107.101C106.405 27.2912 105.942 26.7005 105.594 25.9916Z" fill="white"/>
<path d="M114.751 0.236328H113.013C114.172 2.24477 113.476 4.84392 111.506 6.02536C111.39 6.1435 111.274 6.26165 111.274 6.37979V20.0844C111.274 20.2026 111.39 20.3207 111.506 20.4389C113.476 21.6203 114.172 24.2195 113.013 26.346C112.665 26.9368 112.201 27.4093 111.738 27.7638H114.751C116.142 27.7638 117.185 26.7005 117.185 25.2827V2.71734C117.185 1.41776 116.142 0.236328 114.751 0.236328Z" fill="white"/>
<path d="M4.98414 18.903C5.21596 19.0211 5.44778 19.2574 5.79551 19.6118C6.14324 19.9662 6.49097 20.2025 6.8387 20.4388C7.41825 20.7932 7.9978 21.1477 8.69326 21.384C9.27282 21.6203 9.96828 21.7384 10.5478 21.7384C11.1274 21.7384 11.591 21.6203 12.0547 21.5021C12.4024 21.384 12.7501 21.1477 12.9819 20.9114C13.2138 20.6751 13.4456 20.4388 13.4456 20.0844C13.5615 19.73 13.5615 19.4937 13.5615 19.1392C13.5615 18.7848 13.4456 18.4304 13.0979 18.076C12.7501 17.7215 12.4024 17.4852 12.0547 17.2489C11.591 17.0127 11.2433 16.7764 10.7796 16.6582C10.316 16.5401 9.96828 16.4219 9.62055 16.1857C8.34553 15.7131 7.07052 15.1224 5.79551 14.5316C4.86823 14.0591 3.94095 13.3502 3.12958 12.5232C2.43411 11.8143 1.85456 10.9873 1.50683 10.1603C1.39092 9.45148 1.1591 8.50633 1.1591 7.56118C1.1591 6.37975 1.39092 5.4346 1.85456 4.37131C2.3182 3.42616 3.01366 2.59916 3.82504 2.00844C4.75232 1.29958 5.79551 0.827004 6.8387 0.472574C8.11371 0.118143 9.38873 0 10.6637 0C11.7069 0 12.7501 0.118143 13.7933 0.35443C14.8365 0.590717 15.7638 1.06329 16.6911 1.53586C17.1547 1.77215 17.5024 2.00844 17.8502 2.24473C18.1979 2.48101 18.5456 2.7173 18.7775 2.95359C19.0093 3.18987 19.2411 3.42616 19.4729 3.66245C19.5888 3.78059 19.7047 4.01688 19.7047 4.25316C19.7047 4.37131 19.7047 4.60759 19.5888 4.72574C19.4729 4.84388 19.357 5.08017 19.2411 5.19831L16.4592 8.1519C16.3433 8.38819 16.1115 8.38819 15.8797 8.50633C15.7638 8.50633 15.532 8.50633 15.4161 8.38819C15.4161 8.27004 15.3001 8.1519 15.0683 8.03376L14.8365 7.91561C14.6047 7.67933 14.3729 7.44304 14.0251 7.32489C13.6774 7.08861 13.4456 6.85232 13.0979 6.73418C12.7501 6.49789 12.4024 6.37975 12.0547 6.2616C11.7069 6.14346 11.3592 6.14346 10.8956 6.14346C10.5478 6.14346 10.2001 6.14346 9.73646 6.2616C9.50464 6.14346 9.27282 6.2616 8.92509 6.37975C8.69326 6.61603 8.46144 6.73418 8.34553 6.97046C7.9978 7.56118 7.9978 8.1519 8.34553 8.74262C8.57735 9.09705 8.80918 9.33333 9.15691 9.45148C9.50464 9.68776 9.96828 9.92405 10.4319 10.0422C10.7796 10.2785 11.4751 10.5148 12.0547 10.6329C13.3297 11.1055 14.4888 11.4599 15.532 11.9325C16.5752 12.4051 17.5024 12.8776 18.3138 13.5865C19.1252 14.1772 19.7047 15.0042 20.1684 15.8312C20.632 16.8945 20.8638 17.9578 20.8638 19.0211C20.8638 20.3207 20.632 21.5021 20.0525 22.6835C19.4729 23.7468 18.7775 24.692 17.8502 25.519C16.807 26.346 15.7638 26.9367 14.4888 27.2911C13.2138 27.7637 11.8228 27.8819 10.4319 27.8819C9.041 27.8819 7.65007 27.6456 6.37506 27.173C5.10005 26.7004 3.82504 25.9916 2.66593 25.1646C2.20229 24.8101 1.85456 24.4557 1.39092 24.1013C1.04319 23.7468 0.811371 23.5105 0.579551 23.2743L0.463641 23.1561C0.11591 22.9198 0 22.6835 0 22.5654C0 22.4473 0.11591 22.0928 0.463641 21.8565L3.47731 18.7848C3.70913 18.6667 3.82504 18.5485 4.05686 18.5485C4.17277 18.5485 4.28868 18.5485 4.40459 18.6667C4.63641 18.6667 4.75232 18.7848 4.98414 18.903Z" fill="white"/>
<path d="M25.1523 1.4177C25.1523 1.18142 25.2683 0.945129 25.3842 0.826985C25.5001 0.708842 25.7319 0.590698 25.9637 0.590698H43.8139C44.0457 0.590698 44.2775 0.708842 44.3934 0.826985C44.5093 0.945129 44.6253 1.29956 44.6253 1.4177V5.90715C44.6253 6.14344 44.5093 6.37973 44.3934 6.49787C44.2775 6.73416 44.0457 6.73416 43.8139 6.73416H32.2229V11.2236H41.2639C41.4957 11.2236 41.7275 11.2236 41.8434 11.3418C41.9593 11.4599 42.0752 11.6962 42.0752 11.9325V15.8312C42.0752 16.0675 41.9593 16.1856 41.8434 16.3038C41.7275 16.4219 41.4957 16.5401 41.2639 16.5401H32.2229V21.2658H44.2775C44.8571 21.2658 45.0889 21.5021 45.0889 22.0928V26.7004C45.0889 26.8185 44.973 26.9367 44.973 27.0548C44.973 27.4093 44.7412 27.5274 44.2775 27.5274H25.9637C25.7319 27.5274 25.5001 27.4093 25.3842 27.2911C25.2683 27.173 25.1523 26.9367 25.1523 26.7004V1.4177Z" fill="white"/>
<path d="M49.4937 1.4177C49.4937 1.18142 49.6096 0.945129 49.7255 0.826985C49.8414 0.708842 50.0732 0.590698 50.305 0.590698H61.896C63.0552 0.590698 64.2143 0.826985 65.3734 1.29956C66.4165 1.77213 67.3438 2.36285 68.1552 3.18985C68.9666 4.01686 69.5461 4.96201 70.0098 6.0253C70.4734 7.08859 70.7052 8.27002 70.7052 9.45146C70.7052 10.2785 70.5893 10.9873 70.3575 11.8143C69.8939 13.232 69.0825 14.6498 68.0393 15.7131C67.4597 16.1856 66.8802 16.6582 66.3006 17.1308L70.937 25.9915C71.053 26.1097 71.1689 26.346 71.2848 26.5823C71.4007 26.8185 71.5166 26.9367 71.5166 27.173C71.5166 27.2911 71.4007 27.5274 71.2848 27.6456C71.1689 27.7637 70.937 27.7637 70.8211 27.7637H64.6779C64.4461 27.7637 64.3302 27.6455 64.0983 27.5274C63.9824 27.4093 63.8665 27.2911 63.7506 27.0548L59.346 18.6666H56.4483V26.9367C56.4483 27.4093 56.2164 27.7637 55.6369 27.7637H50.305C50.0732 27.7637 49.8414 27.6455 49.7255 27.5274C49.6096 27.4093 49.4937 27.173 49.4937 26.9367V1.4177ZM63.5188 9.5696C63.5188 9.21517 63.4029 8.86074 63.287 8.50631C63.1711 8.15188 62.9392 7.79745 62.7074 7.44302C62.5915 7.08859 62.2438 6.8523 61.896 6.61601C61.5483 6.37973 61.2006 6.26158 60.7369 6.26158L59.8097 6.14344C59.5778 6.14344 59.2301 6.14344 58.8824 6.14344H56.4483V12.8776H59.6938C59.9256 12.8776 60.1574 12.8776 60.2733 12.8776C60.3892 12.8776 60.621 12.8776 60.8529 12.7595C61.3165 12.7595 61.6642 12.6413 62.012 12.405C62.3597 12.1688 62.5915 11.9325 62.8233 11.6962C63.0552 11.3418 63.287 11.1055 63.4029 10.6329C63.5188 10.2785 63.5188 9.92403 63.5188 9.5696Z" fill="white"/>
<path d="M82.0645 27.2911C81.9486 27.0549 81.8326 26.8186 81.7167 26.5823C81.6008 26.346 81.4849 26.1097 81.369 25.8734L72.0962 1.41772C72.0962 1.29958 72.0962 1.29958 72.0962 1.29958V1.18144C72.0962 0.827006 72.328 0.708862 72.7917 0.708862H78.5872C79.0508 0.708862 79.3985 0.945149 79.5144 1.41772L84.9622 18.0759C85.4259 16.6582 85.8895 15.3587 86.3531 13.9409C86.8168 12.5232 87.2804 11.2236 87.6282 9.80591C88.0918 8.38819 88.5554 7.08861 88.9032 5.67089C89.2509 4.25317 89.8305 2.95359 90.2941 1.53587C90.41 1.06329 90.8736 0.827006 91.3373 0.827006H97.0169C97.2487 0.827006 97.4805 0.827006 97.5964 0.945149C97.7123 1.06329 97.8283 1.18144 97.7124 1.41772C97.7124 1.53587 97.7124 1.53587 97.7124 1.65401V1.77215L88.4395 26.346C88.3236 26.4641 88.3236 26.7004 88.2077 26.9367C88.0918 27.173 87.9759 27.2911 87.9759 27.5274C87.86 27.6456 87.7441 27.8819 87.6282 28C87.5122 28.1181 87.2804 28.2363 87.1645 28.2363H82.7599C82.4122 27.7637 82.1804 27.5274 82.0645 27.2911Z" fill="white"/>
<path d="M111.274 24.8102L109.999 26.2279C109.883 26.346 109.767 26.346 109.651 26.346L107.912 25.8735C107.796 25.8735 107.68 25.7553 107.68 25.6372L107.217 23.865C107.217 23.7469 107.217 23.6287 107.333 23.5106L108.608 22.0929C108.724 21.9747 108.84 21.9747 108.955 21.9747L110.694 22.4473C110.81 22.4473 110.926 22.5654 110.926 22.6836L111.39 24.4557C111.505 24.5739 111.39 24.692 111.274 24.8102Z" fill="white"/>
</g>
<defs>
<clipPath id="clip0">
<rect width="117.185" height="28" fill="white"/>
</clipPath>
</defs>
</svg>
