<svg width="101" height="24" viewBox="0 0 101 24" fill="none" xmlns="http://www.w3.org/2000/svg">
<path d="M96.2256 2.0253V0.202515H91.4541V2.0253C91.4541 2.12656 91.5535 2.3291 91.6529 2.3291L93.7405 3.34175C93.8399 3.44302 93.9393 3.44302 94.0387 3.34175L96.1262 2.3291C96.1262 2.3291 96.2256 2.22783 96.2256 2.0253Z" fill="black"/>
<path d="M90.5593 22.2785C89.8635 20.8607 90.1617 19.1392 91.2552 18.0253C91.454 17.8228 91.6528 17.6202 91.951 17.519C92.0504 17.4177 92.1498 17.3164 92.1498 17.2152V5.46834C92.1498 5.36707 92.0504 5.26581 91.951 5.16454C90.2611 4.15188 89.6646 1.92403 90.6587 0.202515H89.1676C87.9747 0.202515 87.0801 1.11391 87.0801 2.3291V21.5696C87.0801 22.7848 87.9747 23.6962 89.1676 23.6962H91.8516C91.2552 23.3924 90.8575 22.8861 90.5593 22.2785Z" fill="black"/>
<path d="M98.4124 0.202515H96.9213C97.9153 1.92403 97.3189 4.15188 95.629 5.16454C95.5296 5.26581 95.4302 5.36707 95.4302 5.46834V17.2152C95.4302 17.3164 95.5296 17.4177 95.629 17.519C97.3189 18.5316 97.9153 20.7595 96.9213 22.5823C96.6231 23.0886 96.2254 23.4937 95.8278 23.7975H98.4124C99.6053 23.7975 100.5 22.8861 100.5 21.6709V2.3291C100.5 1.21517 99.6053 0.202515 98.4124 0.202515Z" fill="black"/>
<path d="M4.27448 16.2025C4.4733 16.3038 4.67211 16.5063 4.97033 16.8101C5.26855 17.1139 5.56677 17.3165 5.86499 17.519C6.36202 17.8228 6.85905 18.1266 7.45549 18.3291C7.95252 18.5316 8.54896 18.6329 9.046 18.6329C9.54303 18.6329 9.94065 18.5316 10.3383 18.4304C10.6365 18.3291 10.9347 18.1266 11.1335 17.9241C11.3323 17.7215 11.5312 17.519 11.5312 17.2152C11.6306 16.9114 11.6306 16.7089 11.6306 16.4051C11.6306 16.1013 11.5312 15.7975 11.2329 15.4937C10.9347 15.1899 10.6365 14.9873 10.3383 14.7848C9.94065 14.5823 9.64244 14.3797 9.24481 14.2785C8.84718 14.1772 8.54896 14.0759 8.25074 13.8734C7.15727 13.4684 6.0638 12.962 4.97033 12.4557C4.17508 12.0506 3.37982 11.443 2.68398 10.7342C2.08754 10.1266 1.5905 9.41772 1.29229 8.70886C1.19288 8.10127 0.994066 7.29114 0.994066 6.48101C0.994066 5.46835 1.19288 4.65823 1.5905 3.74684C1.98813 2.93671 2.58457 2.22785 3.28042 1.72152C4.07567 1.11392 4.97033 0.708861 5.86499 0.405063C6.95846 0.101266 8.05193 0 9.1454 0C10.0401 0 10.9347 0.101266 11.8294 0.303797C12.724 0.506329 13.5193 0.911392 14.3145 1.31646C14.7122 1.51899 15.0104 1.72152 15.3086 1.92405C15.6068 2.12658 15.905 2.32911 16.1039 2.53165C16.3027 2.73418 16.5015 2.93671 16.7003 3.13924C16.7997 3.24051 16.8991 3.44304 16.8991 3.64557C16.8991 3.74684 16.8991 3.94937 16.7997 4.05063C16.7003 4.1519 16.6009 4.35443 16.5015 4.4557L14.1157 6.98734C14.0163 7.18987 13.8175 7.18987 13.6187 7.29114C13.5193 7.29114 13.3205 7.29114 13.2211 7.18987C13.2211 7.08861 13.1217 6.98734 12.9229 6.88608L12.724 6.78481C12.5252 6.58228 12.3264 6.37975 12.0282 6.27848C11.73 6.07595 11.5312 5.87342 11.2329 5.77215C10.9347 5.56962 10.6365 5.46835 10.3383 5.36709C10.0401 5.26582 9.74184 5.26582 9.34422 5.26582C9.046 5.26582 8.74778 5.26582 8.35015 5.36709C8.15134 5.26582 7.95252 5.36709 7.6543 5.46835C7.45549 5.67089 7.25668 5.77215 7.15727 5.97468C6.85905 6.48101 6.85905 6.98734 7.15727 7.49367C7.35608 7.79747 7.5549 8 7.85312 8.10127C8.15134 8.3038 8.54896 8.50633 8.94659 8.6076C9.24481 8.81013 9.84125 9.01266 10.3383 9.11392C11.4318 9.51899 12.4258 9.82279 13.3205 10.2278C14.2151 10.6329 15.0104 11.038 15.7062 11.6456C16.4021 12.1519 16.8991 12.8608 17.2967 13.5696C17.6944 14.481 17.8932 15.3924 17.8932 16.3038C17.8932 17.4177 17.6944 18.4304 17.1973 19.443C16.7003 20.3544 16.1039 21.1646 15.3086 21.8734C14.4139 22.5823 13.5193 23.0886 12.4258 23.3924C11.3323 23.7975 10.1395 23.8987 8.94659 23.8987C7.75371 23.8987 6.56083 23.6962 5.46736 23.2911C4.37389 22.8861 3.28042 22.2785 2.28635 21.5696C1.88872 21.2658 1.5905 20.962 1.19288 20.6582C0.894659 20.3544 0.695846 20.1519 0.497033 19.9494L0.397626 19.8481C0.0994065 19.6456 0 19.443 0 19.3418C0 19.2405 0.0994065 18.9367 0.397626 18.7342L2.9822 16.1013C3.18101 16 3.28042 15.8987 3.47923 15.8987C3.57864 15.8987 3.67804 15.8987 3.77745 16C3.97626 16 4.07567 16.1013 4.27448 16.2025Z" fill="black"/>
<path d="M21.5713 1.21521C21.5713 1.01268 21.6707 0.810145 21.7701 0.708879C21.8695 0.607613 22.0683 0.506348 22.2671 0.506348H37.5757C37.7746 0.506348 37.9734 0.607613 38.0728 0.708879C38.1722 0.810145 38.2716 1.11394 38.2716 1.21521V5.06331C38.2716 5.26584 38.1722 5.46837 38.0728 5.56964C37.9734 5.77217 37.7746 5.77217 37.5757 5.77217H27.6351V9.62027H35.3888C35.5876 9.62027 35.7864 9.62027 35.8858 9.72154C35.9852 9.8228 36.0846 10.0253 36.0846 10.2279V13.5696C36.0846 13.7722 35.9852 13.8734 35.8858 13.9747C35.7864 14.076 35.5876 14.1772 35.3888 14.1772H27.6351V18.2279H37.9734C38.4704 18.2279 38.6692 18.4304 38.6692 18.9367V22.8861C38.6692 22.9874 38.5698 23.0886 38.5698 23.1899C38.5698 23.4937 38.371 23.5949 37.9734 23.5949H22.2671C22.0683 23.5949 21.8695 23.4937 21.7701 23.3924C21.6707 23.2912 21.5713 23.0886 21.5713 22.8861V1.21521Z" fill="black"/>
<path d="M42.4468 1.21521C42.4468 1.01268 42.5462 0.810145 42.6456 0.708879C42.745 0.607613 42.9438 0.506348 43.1426 0.506348H53.0833C54.0773 0.506348 55.0714 0.708879 56.0655 1.11394C56.9601 1.51901 57.7554 2.02534 58.4512 2.7342C59.1471 3.44306 59.6441 4.25318 60.0417 5.16458C60.4394 6.07597 60.6382 7.08863 60.6382 8.10128C60.6382 8.81015 60.5388 9.41774 60.34 10.1266C59.9423 11.3418 59.2465 12.557 58.3518 13.4684C57.8548 13.8734 57.3578 14.2785 56.8607 14.6836L60.837 22.2785C60.9364 22.3798 61.0358 22.5823 61.1352 22.7848C61.2346 22.9874 61.334 23.0886 61.334 23.2912C61.334 23.3924 61.2346 23.595 61.1352 23.6962C61.0358 23.7975 60.837 23.7975 60.7376 23.7975H55.469C55.2702 23.7975 55.1708 23.6962 54.972 23.595C54.8726 23.4937 54.7732 23.3924 54.6738 23.1899L50.8963 16H48.4112V23.0886C48.4112 23.4937 48.2124 23.7975 47.7153 23.7975H43.1426C42.9438 23.7975 42.745 23.6962 42.6456 23.595C42.5462 23.4937 42.4468 23.2912 42.4468 23.0886V1.21521ZM54.475 8.20255C54.475 7.89875 54.3756 7.59495 54.2762 7.29116C54.1768 6.98736 53.9779 6.68356 53.7791 6.37977C53.6797 6.07597 53.3815 5.87344 53.0833 5.6709C52.7851 5.46837 52.4868 5.36711 52.0892 5.36711L51.294 5.26584C51.0951 5.26584 50.7969 5.26584 50.4987 5.26584H48.4112V11.038H51.1946C51.3934 11.038 51.5922 11.038 51.6916 11.038C51.791 11.038 51.9898 11.038 52.1886 10.9367C52.5862 10.9367 52.8845 10.8355 53.1827 10.6329C53.4809 10.4304 53.6797 10.2279 53.8785 10.0253C54.0773 9.72154 54.2762 9.51901 54.3756 9.11394C54.475 8.81015 54.475 8.50635 54.475 8.20255Z" fill="black"/>
<path d="M70.38 23.3924C70.2806 23.1898 70.1812 22.9873 70.0818 22.7848C69.9824 22.5822 69.883 22.3797 69.7836 22.1772L61.8311 1.21514C61.8311 1.11387 61.8311 1.11387 61.8311 1.11387V1.01261C61.8311 0.70881 62.0299 0.607544 62.4275 0.607544H67.3978C67.7955 0.607544 68.0937 0.810076 68.1931 1.21514L72.8652 15.4936C73.2628 14.2784 73.6604 13.1645 74.0581 11.9493C74.4557 10.7341 74.8533 9.6202 75.1515 8.40501C75.5492 7.18982 75.9468 6.0759 76.245 4.86071C76.5432 3.64552 77.0403 2.53159 77.4379 1.3164C77.5373 0.911341 77.9349 0.70881 78.3325 0.70881H83.2035C83.4023 0.70881 83.6011 0.70881 83.7005 0.810076C83.7999 0.911341 83.8993 1.01261 83.7999 1.21514C83.7999 1.3164 83.7999 1.3164 83.7999 1.41767V1.51894L75.8474 22.5822C75.748 22.6835 75.748 22.886 75.6486 23.0886C75.5492 23.2911 75.4498 23.3924 75.4498 23.5949C75.3503 23.6961 75.2509 23.8987 75.1515 23.9999C75.0521 24.1012 74.8533 24.2025 74.7539 24.2025H70.9765C70.6782 23.7974 70.4794 23.5949 70.38 23.3924Z" fill="black"/>
<path d="M95.4304 21.2658L94.3369 22.481C94.2375 22.5823 94.1381 22.5823 94.0387 22.5823L92.5476 22.1772C92.4482 22.1772 92.3488 22.076 92.3488 21.9747L91.9512 20.4557C91.9512 20.3544 91.9512 20.2532 92.0506 20.1519L93.144 18.9367C93.2435 18.8354 93.3429 18.8354 93.4423 18.8354L94.9334 19.2405C95.0328 19.2405 95.1322 19.3418 95.1322 19.443L95.5298 20.962C95.6292 21.0633 95.5298 21.1646 95.4304 21.2658Z" fill="black"/>
</svg>
