<svg width="18" height="18" viewBox="0 0 18 18" fill="none" xmlns="http://www.w3.org/2000/svg">
<path d="M13.7812 18H4.21875C1.89253 18 0 16.1075 0 13.7812V4.21875C0 1.89253 1.89253 0 4.21875 0H13.7812C16.1075 0 18 1.89253 18 4.21875V13.7812C18 16.1075 16.1075 18 13.7812 18ZM4.21875 1.40625C2.66794 1.40625 1.40625 2.66794 1.40625 4.21875V13.7812C1.40625 15.3321 2.66794 16.5938 4.21875 16.5938H13.7812C15.3321 16.5938 16.5938 15.3321 16.5938 13.7812V4.21875C16.5938 2.66794 15.3321 1.40625 13.7812 1.40625H4.21875ZM13.957 3.16406C13.4716 3.16406 13.0781 3.55757 13.0781 4.04297C13.0781 4.52837 13.4716 4.92188 13.957 4.92188C14.4424 4.92188 14.8359 4.52837 14.8359 4.04297C14.8359 3.55757 14.4424 3.16406 13.957 3.16406ZM9 13.5703C6.47989 13.5703 4.42969 11.5201 4.42969 9C4.6807 2.93685 13.3202 2.93861 13.5703 9.00004C13.5703 11.5201 11.5201 13.5703 9 13.5703ZM9 5.83594C7.25534 5.83594 5.83594 7.25534 5.83594 9C6.00975 13.1976 11.9909 13.1963 12.1641 8.99996C12.1641 7.25534 10.7447 5.83594 9 5.83594Z" fill="white"/>
</svg>
