<svg width="40" height="40" viewBox="0 0 40 40" fill="none" xmlns="http://www.w3.org/2000/svg">
<g clip-path="url(#clip0)">
<path d="M1.17188 7.10938C1.81906 7.10938 2.34375 6.58469 2.34375 5.9375V2.34375H5.9375C6.58469 2.34375 7.10938 1.81906 7.10938 1.17188C7.10938 0.524687 6.58469 0 5.9375 0H1.17188C0.524687 0 0 0.524687 0 1.17188V5.9375C0 6.58469 0.524687 7.10938 1.17188 7.10938Z" fill="black"/>
<path d="M1.17188 40H5.9375C6.58469 40 7.10938 39.4753 7.10938 38.8281C7.10938 38.1809 6.58469 37.6562 5.9375 37.6562H2.34375V34.0625C2.34375 33.4153 1.81906 32.8906 1.17188 32.8906C0.524687 32.8906 0 33.4153 0 34.0625V38.8281C0 39.4753 0.524687 40 1.17188 40Z" fill="black"/>
<path d="M38.8281 7.10938C39.4753 7.10938 40 6.58469 40 5.9375V1.17188C40 0.524687 39.4753 0 38.8281 0H34.0625C33.4153 0 32.8906 0.524687 32.8906 1.17188C32.8906 1.81906 33.4153 2.34375 34.0625 2.34375H37.6562V5.9375C37.6562 6.58469 38.1809 7.10938 38.8281 7.10938Z" fill="black"/>
<path d="M38.8281 32.8906C38.1809 32.8906 37.6562 33.4153 37.6562 34.0625V37.6562H34.0625C33.4153 37.6562 32.8906 38.1809 32.8906 38.8281C32.8906 39.4753 33.4153 40 34.0625 40H38.8281C39.4753 40 40 39.4753 40 38.8281V34.0625C40 33.4153 39.4753 32.8906 38.8281 32.8906Z" fill="black"/>
<path d="M20 28.2031C24.5232 28.2031 28.2031 24.5232 28.2031 20C28.2031 15.4768 24.5232 11.7969 20 11.7969C15.4768 11.7969 11.7969 15.4768 11.7969 20C11.7969 24.5232 15.4768 28.2031 20 28.2031ZM20 14.1406C23.2309 14.1406 25.8594 16.7691 25.8594 20C25.8594 23.2309 23.2309 25.8594 20 25.8594C16.7691 25.8594 14.1406 23.2309 14.1406 20C14.1406 16.7691 16.7691 14.1406 20 14.1406Z" fill="black"/>
<path d="M20 23.5156C21.9385 23.5156 23.5156 21.9385 23.5156 20C23.5156 18.0615 21.9385 16.4844 20 16.4844C18.0615 16.4844 16.4844 18.0615 16.4844 20C16.4844 21.9385 18.0615 23.5156 20 23.5156ZM20 18.8281C20.6462 18.8281 21.1719 19.3538 21.1719 20C21.1719 20.6462 20.6462 21.1719 20 21.1719C19.3538 21.1719 18.8281 20.6462 18.8281 20C18.8281 19.3538 19.3538 18.8281 20 18.8281Z" fill="black"/>
<path d="M5.93954 26.7485C9.89204 30.1417 14.7737 32.8906 20.0002 32.8906C25.227 32.8906 30.1088 30.1414 34.0609 26.7485C37.5388 23.7629 39.6882 20.8108 39.7781 20.6866C40.0744 20.2767 40.0744 19.7231 39.7781 19.3134C39.6883 19.1891 37.5388 16.237 34.0609 13.2514C30.1084 9.85828 25.2268 7.10938 20.0002 7.10938C14.7734 7.10938 9.89173 9.85859 5.93954 13.2515C2.46173 16.2371 0.312273 19.1892 0.222429 19.3134C-0.0738989 19.7233 -0.0738989 20.2769 0.222429 20.6866C0.312273 20.8108 2.4618 23.763 5.93954 26.7485ZM20.0002 9.45312C24.9747 9.45312 29.5406 12.4674 32.495 14.9962C34.8084 16.9763 36.527 18.9806 37.346 19.9996C36.5381 21.0033 34.8541 22.965 32.5784 24.927C29.3199 27.7366 24.8487 30.5469 20.0002 30.5469C15.0258 30.5469 10.4599 27.5326 7.50548 25.0038C5.19188 23.0236 3.47329 21.0191 2.65446 20.0004C3.46235 18.9967 5.14649 17.0351 7.42212 15.073C10.6806 12.2634 15.1518 9.45312 20.0002 9.45312Z" fill="black"/>
</g>
<defs>
<clipPath id="clip0">
<rect width="40.0002" height="40" fill="white"/>
</clipPath>
</defs>
</svg>
