<svg width="40" height="40" viewBox="0 0 40 40" fill="none" xmlns="http://www.w3.org/2000/svg">
<g clip-path="url(#clip0)">
<path d="M14.8438 15.1562C15.3615 15.1562 15.7812 14.7365 15.7812 14.2188C15.7812 13.701 15.3615 13.2812 14.8438 13.2812C14.326 13.2812 13.9062 13.701 13.9062 14.2188C13.9062 14.7365 14.326 15.1562 14.8438 15.1562Z" fill="black"/>
<path d="M26.3335 19.9163C26.187 19.7698 25.9883 19.6875 25.781 19.6875H17.1873V18.125H19.531C19.9625 18.125 20.3123 17.7752 20.3123 17.3438V11.0938C20.3123 10.6623 19.9625 10.3125 19.531 10.3125H17.1873V7.96875C17.1873 7.53734 16.8375 7.1875 16.406 7.1875H13.281C12.8496 7.1875 12.4998 7.53734 12.4998 7.96875V10.3125H3.90605C3.69886 10.3125 3.50011 10.3948 3.35363 10.5413L0.228625 13.6663C-0.0764526 13.9714 -0.0764526 14.4661 0.228625 14.7713L3.35363 17.8963C3.50011 18.0427 3.69886 18.125 3.90605 18.125H12.4998V19.6875H10.156C9.72456 19.6875 9.3748 20.0373 9.3748 20.4688V26.7188C9.3748 27.1502 9.72456 27.5 10.156 27.5H12.4998V38.4375H7.03105C6.59956 38.4375 6.2498 38.7873 6.2498 39.2188C6.2498 39.6502 6.59956 40 7.03105 40H22.656C23.0875 40 23.4373 39.6502 23.4373 39.2188C23.4373 38.7873 23.0875 38.4375 22.656 38.4375H17.1873V27.5H25.781C25.9882 27.5 26.1869 27.4177 26.3335 27.2712L29.4585 24.1462C29.7635 23.8411 29.7635 23.3464 29.4585 23.0413L26.3335 19.9163ZM14.0623 8.75H15.6248V10.3125H14.0623V8.75ZM1.88589 14.2188L4.22964 11.875H18.7498V16.5625H4.22964L1.88589 14.2188ZM14.0623 18.125H15.6248V19.6875H14.0623V18.125ZM15.6248 38.4375H14.0623V27.5H15.6248V38.4375ZM25.4575 25.9375H10.9373V21.25H25.4574L27.8011 23.5938L25.4575 25.9375Z" fill="black"/>
<path d="M14.8438 24.5312C15.3615 24.5312 15.7812 24.1115 15.7812 23.5938C15.7812 23.076 15.3615 22.6562 14.8438 22.6562C14.326 22.6562 13.9062 23.076 13.9062 23.5938C13.9062 24.1115 14.326 24.5312 14.8438 24.5312Z" fill="black"/>
<path d="M30.625 9.375L32.1875 13.2812L34.5313 5.46875L26.7188 7.8125L30.625 9.375Z" fill="black"/>
<path d="M31.4063 0C26.6677 0 22.8125 3.85516 22.8125 8.59375V17.1875C22.8125 17.4805 22.9765 17.7489 23.2371 17.8826C23.3495 17.9402 23.4719 17.9688 23.5937 17.9688C23.7543 17.9688 23.9141 17.9193 24.0494 17.8221L26.7983 15.8486C28.1741 16.7264 29.7555 17.1875 31.4063 17.1875C36.1448 17.1875 40 13.3323 40 8.59375C40 3.85516 36.1449 0 31.4063 0ZM31.4063 15.625C29.898 15.625 28.4609 15.1547 27.2502 14.265C26.9774 14.0646 26.6067 14.0626 26.3319 14.26L24.375 15.6648V8.59375C24.375 4.71672 27.5292 1.5625 31.4063 1.5625C35.2833 1.5625 38.4375 4.71672 38.4375 8.59375C38.4375 12.4708 35.2833 15.625 31.4063 15.625Z" fill="black"/>
</g>
<defs>
<clipPath id="clip0">
<rect width="40" height="40" fill="white"/>
</clipPath>
</defs>
</svg>
