<svg width="17" height="16" viewBox="0 0 17 16" fill="none" xmlns="http://www.w3.org/2000/svg">
<path d="M14.8191 10.8596L12.5966 10.6059C12.0628 10.5446 11.5378 10.7284 11.1616 11.1046L9.55158 12.7146C7.07533 11.4546 5.04533 9.43337 3.78533 6.94837L5.40408 5.32962C5.78033 4.95337 5.96408 4.42837 5.90283 3.89462L5.64908 1.68962C5.54408 0.805869 4.80033 0.140869 3.90783 0.140869H2.39408C1.40533 0.140869 0.582833 0.963369 0.644083 1.95212C1.10783 9.42462 7.08408 15.3921 14.5478 15.8559C15.5366 15.9171 16.3591 15.0946 16.3591 14.1059V12.5921C16.3678 11.7084 15.7028 10.9646 14.8191 10.8596Z" fill="#F8671D"/>
</svg>
