<svg width="17" height="18" viewBox="0 0 17 18" fill="none" xmlns="http://www.w3.org/2000/svg">
<path d="M13.75 12.605C13.085 12.605 12.49 12.8675 12.035 13.2788L5.79625 9.64753C5.84 9.44628 5.875 9.24503 5.875 9.03503C5.875 8.82503 5.84 8.62378 5.79625 8.42253L11.965 4.82628C12.4375 5.26378 13.0588 5.53503 13.75 5.53503C15.2025 5.53503 16.375 4.36253 16.375 2.91003C16.375 1.45753 15.2025 0.285034 13.75 0.285034C12.2975 0.285034 11.125 1.45753 11.125 2.91003C11.125 3.12003 11.16 3.32128 11.2038 3.52253L5.035 7.11878C4.5625 6.68128 3.94125 6.41003 3.25 6.41003C1.7975 6.41003 0.625 7.58253 0.625 9.03503C0.625 10.4875 1.7975 11.66 3.25 11.66C3.94125 11.66 4.5625 11.3888 5.035 10.9513L11.265 14.5913C11.2212 14.775 11.195 14.9675 11.195 15.16C11.195 16.5688 12.3413 17.715 13.75 17.715C15.1587 17.715 16.305 16.5688 16.305 15.16C16.305 13.7513 15.1587 12.605 13.75 12.605Z" fill="#FF6D00"/>
</svg>
