<svg width="40" height="40" viewBox="0 0 40 40" fill="none" xmlns="http://www.w3.org/2000/svg">
<path fill-rule="evenodd" clip-rule="evenodd" d="M33.3333 6.66663H6.66659C4.83325 6.66663 3.34992 8.16663 3.34992 9.99996L3.33325 30C3.33325 31.8333 4.83325 33.3333 6.66659 33.3333H33.3333C35.1666 33.3333 36.6666 31.8333 36.6666 30V9.99996C36.6666 8.16663 35.1666 6.66663 33.3333 6.66663ZM33.3333 28.3333C33.3333 29.25 32.5833 30 31.6666 30H8.33325C7.41659 30 6.66659 29.25 6.66659 28.3333V13.3333L18.2333 20.5666C19.3166 21.25 20.6833 21.25 21.7666 20.5666L33.3333 13.3333V28.3333ZM6.66659 9.99996L19.9999 18.3333L33.3333 9.99996H6.66659Z" fill="#190A28"/>
</svg>
