<svg width="30" height="30" viewBox="0 0 30 30" fill="none" xmlns="http://www.w3.org/2000/svg">
<path d="M27.0364 20.4469L22.8031 19.9636C21.7864 19.8469 20.7864 20.1969 20.0697 20.9136L17.0031 23.9803C12.2864 21.5803 8.41973 17.7303 6.01973 12.9969L9.10306 9.91361C9.81973 9.19694 10.1697 8.19694 10.0531 7.18027L9.56973 2.98027C9.36973 1.29694 7.95306 0.0302734 6.25306 0.0302734H3.36973C1.4864 0.0302734 -0.0802708 1.59694 0.0363959 3.48027C0.919729 17.7136 12.3031 29.0803 26.5197 29.9636C28.4031 30.0803 29.9697 28.5136 29.9697 26.6303V23.7469C29.9864 22.0636 28.7197 20.6469 27.0364 20.4469Z" fill="#190A28"/>
</svg>
